<?xml version="1.0" standalone="no"?>
<!DOCTYPE svg PUBLIC "-//W3C//DTD SVG 20010904//EN"
 "http://www.w3.org/TR/2001/REC-SVG-20010904/DTD/svg10.dtd">
<svg version="1.0" xmlns="http://www.w3.org/2000/svg"
 width="1920.000000pt" height="652.000000pt" viewBox="0 0 1920.000000 652.000000"
 preserveAspectRatio="xMidYMid meet">
<metadata>
Created by potrace 1.15, written by Peter Selinger 2001-2017
</metadata>
<g transform="translate(0.000000,652.000000) scale(0.100000,-0.100000)"
fill="#000000" stroke="none">
<path d="M19156 6372 c-220 -380 -823 -1021 -1435 -1525 -1008 -832 -2205
-1450 -3369 -1741 -610 -153 -1145 -219 -1762 -219 -530 0 -967 45 -1477 153
-106 22 -280 58 -385 80 -736 155 -1462 218 -2402 207 -900 -10 -1665 -82
-2661 -252 -1761 -299 -3799 -898 -5487 -1612 l-178 -75 0 -694 0 -694 9600 0
9600 0 0 3220 c0 1771 -1 3220 -2 3220 -2 0 -21 -31 -42 -68z"/>
</g>
</svg>
